<?xml version="1.0" encoding="UTF-8" standalone="no"?>
<svg
   xmlns:dc="http://purl.org/dc/elements/1.1/"
   xmlns:cc="http://creativecommons.org/ns#"
   xmlns:rdf="http://www.w3.org/1999/02/22-rdf-syntax-ns#"
   xmlns:svg="http://www.w3.org/2000/svg"
   xmlns="http://www.w3.org/2000/svg"
   xmlns:xlink="http://www.w3.org/1999/xlink"
   xmlns:sodipodi="http://sodipodi.sourceforge.net/DTD/sodipodi-0.dtd"
   xmlns:inkscape="http://www.inkscape.org/namespaces/inkscape"
   version="1.1"
   id="svg833"
   width="2629"
   height="500"
   viewBox="0 0 2629 500"
   sodipodi:docname="logo.svg"
   inkscape:version="1.0.1 (3bc2e813f5, 2020-09-07)">
  <metadata
     id="metadata839">
    <rdf:RDF>
      <cc:Work
         rdf:about="">
        <dc:format>image/svg+xml</dc:format>
        <dc:type
           rdf:resource="http://purl.org/dc/dcmitype/StillImage" />
        <dc:title />
      </cc:Work>
    </rdf:RDF>
  </metadata>
  <defs
     id="defs837">
    <linearGradient
       inkscape:collect="always"
       id="linearGradient5436">
      <stop
         style="stop-color:#006cc6;stop-opacity:1"
         offset="0"
         id="stop5432" />
      <stop
         style="stop-color:#006ff1;stop-opacity:1"
         offset="1"
         id="stop5434" />
    </linearGradient>
    <linearGradient
       inkscape:collect="always"
       id="linearGradient5428">
      <stop
         style="stop-color:#0066ff;stop-opacity:1;"
         offset="0"
         id="stop5424" />
      <stop
         style="stop-color:#00cfff;stop-opacity:1"
         offset="1"
         id="stop5426" />
    </linearGradient>
    <filter
       style="color-interpolation-filters:sRGB;"
       inkscape:label="Invert"
       id="filter848">
      <feColorMatrix
         values="0 0 -1 0 1 0 -1 0 0 1 -1 0 0 0 1 -0.21 -0.72 -0.07 2 0 "
         result="fbSourceGraphic"
         id="feColorMatrix846" />
      <feColorMatrix
         result="fbSourceGraphicAlpha"
         in="fbSourceGraphic"
         values="0 0 0 -1 0 0 0 0 -1 0 0 0 0 -1 0 0 0 0 1 0"
         id="feColorMatrix850" />
      <feColorMatrix
         id="feColorMatrix852"
         values="0 -1 0 0 1 -1 0 0 0 1 0 0 -1 0 1 -0.21 -0.72 -0.07 2 0 "
         result="fbSourceGraphic"
         in="fbSourceGraphic" />
      <feColorMatrix
         result="fbSourceGraphicAlpha"
         in="fbSourceGraphic"
         values="0 0 0 -1 0 0 0 0 -1 0 0 0 0 -1 0 0 0 0 1 0"
         id="feColorMatrix854" />
      <feColorMatrix
         id="feColorMatrix856"
         values="0 -1 0 0 1 -1 0 0 0 1 0 0 -1 0 1 -0.21 -0.72 -0.07 2 0 "
         result="fbSourceGraphic"
         in="fbSourceGraphic" />
      <feColorMatrix
         result="fbSourceGraphicAlpha"
         in="fbSourceGraphic"
         values="0 0 0 -1 0 0 0 0 -1 0 0 0 0 -1 0 0 0 0 1 0"
         id="feColorMatrix866" />
      <feColorMatrix
         id="feColorMatrix868"
         values="0 0 -1 0 1 0 -1 0 0 1 -1 0 0 0 1 -0.21 -0.72 -0.07 2 0 "
         result="fbSourceGraphic"
         in="fbSourceGraphic" />
      <feColorMatrix
         result="fbSourceGraphicAlpha"
         in="fbSourceGraphic"
         values="0 0 0 -1 0 0 0 0 -1 0 0 0 0 -1 0 0 0 0 1 0"
         id="feColorMatrix870" />
      <feColorMatrix
         id="feColorMatrix872"
         values="0 -1 0 0 1 -1 0 0 0 1 0 0 -1 0 1 -0.21 -0.72 -0.07 2 0 "
         result="fbSourceGraphic"
         in="fbSourceGraphic" />
      <feColorMatrix
         result="fbSourceGraphicAlpha"
         in="fbSourceGraphic"
         values="0 0 0 -1 0 0 0 0 -1 0 0 0 0 -1 0 0 0 0 1 0"
         id="feColorMatrix874" />
      <feColorMatrix
         id="feColorMatrix876"
         values="-1 0 0 0 1 0 0 -1 0 1 0 -1 0 0 1 -0.21 -0.72 -0.07 2 0 "
         result="fbSourceGraphic"
         in="fbSourceGraphic" />
      <feColorMatrix
         result="fbSourceGraphicAlpha"
         in="fbSourceGraphic"
         values="0 0 0 -1 0 0 0 0 -1 0 0 0 0 -1 0 0 0 0 1 0"
         id="feColorMatrix878" />
      <feColorMatrix
         id="feColorMatrix880"
         values="0 -1 0 0 1 -1 0 0 0 1 0 0 -1 0 1 -0.21 -0.72 -0.07 2 0 "
         result="fbSourceGraphic"
         in="fbSourceGraphic" />
      <feColorMatrix
         result="fbSourceGraphicAlpha"
         in="fbSourceGraphic"
         values="0 0 0 -1 0 0 0 0 -1 0 0 0 0 -1 0 0 0 0 1 0"
         id="feColorMatrix882" />
      <feColorMatrix
         id="feColorMatrix884"
         type="hueRotate"
         values="180"
         result="color1"
         in="fbSourceGraphic" />
      <feColorMatrix
         id="feColorMatrix886"
         values="1 0 0 0 0 0 0 1 0 0 0 1 0 0 0 -0.21 -0.72 -0.07 2 0 "
         result="color2" />
    </filter>
    <linearGradient
       inkscape:collect="always"
       xlink:href="#linearGradient5428"
       id="linearGradient5430"
       x1="235.1693"
       y1="376.49448"
       x2="246.2798"
       y2="60.528088"
       gradientUnits="userSpaceOnUse" />
    <linearGradient
       inkscape:collect="always"
       xlink:href="#linearGradient5436"
       id="linearGradient5438"
       x1="117.73856"
       y1="369.77179"
       x2="127.99939"
       y2="173.13312"
       gradientUnits="userSpaceOnUse" />
  </defs>
  <sodipodi:namedview
     pagecolor="#ffffff"
     bordercolor="#666666"
     borderopacity="1"
     objecttolerance="10"
     gridtolerance="10"
     guidetolerance="10"
     inkscape:pageopacity="0"
     inkscape:pageshadow="2"
     inkscape:window-width="1366"
     inkscape:window-height="705"
     id="namedview835"
     showgrid="false"
     inkscape:zoom="0.595"
     inkscape:cx="283.80217"
     inkscape:cy="234.42768"
     inkscape:window-x="-8"
     inkscape:window-y="-8"
     inkscape:window-maximized="1"
     inkscape:current-layer="layer1"
     inkscape:document-rotation="0" />
  <g
     inkscape:groupmode="layer"
     id="layer3"
     inkscape:label="Image 3"
     style="display:inline" />
  <g
     inkscape:groupmode="layer"
     id="layer1"
     inkscape:label="Image 1"
     style="display:inline">
    <path
       style="fill:url(#linearGradient5430);fill-opacity:1;stroke:none;stroke-width:1px;stroke-linecap:butt;stroke-linejoin:miter;stroke-opacity:1"
       d="m 395.85963,439.34078 c 0,0 0,0 -15.39958,-315.23833 0,0 0,0 -237.3346,-3.62343 0,0 0,0 -5.43514,340.60233 256.3576,-21.74057 258.16932,-21.74057 258.16932,-21.74057 z"
       id="path892" />
    <path
       style="fill:url(#linearGradient5438);stroke:none;stroke-width:1px;stroke-linecap:butt;stroke-linejoin:miter;stroke-opacity:1;fill-opacity:1"
       d="m 143.12545,120.47902 -9.96443,8.15271 -19.023,-3.62343 -19.928864,310.70905 43.481154,25.364"
       id="path900" />
  </g>
  <g
     inkscape:groupmode="layer"
     id="layer2"
     inkscape:label="Image 2">
    <g
       aria-label="ws"
       transform="scale(0.98462928,1.0156107)"
       id="text897"
       style="font-size:147.784px;line-height:1.25;font-family:'GoAnimate 2006';-inkscape-font-specification:'GoAnimate 2006, ';fill:#ffffff;fill-opacity:1;stroke-width:1.10838">
      <path
         d="m 242.3166,280.00269 q -11.54562,0 -17.39059,-10.24675 l -0.64944,-1.01024 q -9.88595,11.25699 -22.44181,11.25699 -15.51444,0 -19.91621,-11.40131 -1.58752,-4.90689 -1.58752,-9.81378 0,-7.57682 5.19553,-29.36918 l 6.20578,-28.28678 h 13.27746 q -9.16434,43.15177 -10.75186,52.46043 -0.14432,2.5256 -0.14432,3.39153 0,7.86545 5.33985,10.24674 2.45345,0.79376 4.11313,0.79376 12.70019,0 17.53492,-18.18436 0.50512,-2.95857 10.75186,-48.7081 h 13.27747 q -10.24674,48.3473 -10.60754,51.52235 -0.28864,1.94832 -0.28864,3.31936 v 1.29889 q 0.28864,8.29841 6.13361,10.24674 1.804,0.50512 3.68017,0.50512 7.50465,0 13.13315,-8.22626 3.53584,-6.27793 4.25744,-9.16434 0.72161,-2.8864 5.55634,-26.19413 l 4.83473,-23.30773 h 13.63827 q -9.81378,47.2649 -11.25699,52.60475 -8.00977,26.2663 -31.89479,26.2663 z"
         style="stroke-width:1.10838"
         id="path5390" />
      <path
         d="m 351.27844,258.57112 q -3.10289,22.00885 -36.29656,22.00885 -20.92644,0 -27.13222,-12.41155 -2.74208,-5.77281 -2.81424,-13.49395 h 13.20531 q -0.57728,7.28818 6.78305,11.47347 3.75233,2.38128 9.38082,2.38128 18.90596,0.7216 21.28725,-7.21601 l 0.79376,-4.25745 q 2.09264,-9.81378 -18.473,-9.81378 -20.49348,0 -24.89525,-10.82403 -4.40177,-10.89618 2.1648,-23.30773 6.56657,-12.41154 33.26583,-12.41154 18.76164,0 24.96742,12.41154 2.66992,5.77281 2.66992,14.57635 H 342.8357 q -0.7216,-9.02002 -6.49441,-12.55586 -5.19553,-3.10289 -14.43203,-2.38129 -13.92691,0 -16.81332,9.66946 l -0.21648,3.96881 q -2.59776,10.10242 23.45205,10.10242 26.04982,0 22.94693,22.08101 z"
         style="stroke-width:1.10838"
         id="path5392" />
    </g>
  </g>
  <g
     inkscape:groupmode="layer"
     id="layer6"
     inkscape:label="Image 4"
     style="opacity:0.99913333">
    <g
       aria-label="wrappershop.ga"
       id="text969"
       style="font-size:280px;line-height:1.25;font-family:'GoAnimate 2006';-inkscape-font-specification:'GoAnimate 2006, ';fill:#ffffff;fill-opacity:1">
      <path
         d="m 648.24432,340.15533 q -21.875,0 -32.94922,-19.41406 l -1.23046,-1.91406 q -18.73047,21.32812 -42.51954,21.32812 -29.39453,0 -37.73437,-21.60156 -3.00781,-9.29687 -3.00781,-18.59375 0,-14.35547 9.84375,-55.64453 l 11.75781,-53.59375 h 25.15625 q -17.36328,81.75781 -20.37109,99.39453 -0.27344,4.78516 -0.27344,6.42578 0,14.90235 10.11719,19.41407 4.64843,1.5039 7.79296,1.5039 24.0625,0 33.22266,-34.45312 0.95703,-5.60547 20.37109,-92.28516 h 25.15625 q -19.41406,91.60156 -20.09765,97.61719 -0.54688,3.6914 -0.54688,6.28906 v 2.46094 q 0.54688,15.72265 11.6211,19.41406 3.41797,0.95703 6.97265,0.95703 14.21875,0 24.88282,-15.58594 6.69921,-11.89453 8.0664,-17.36328 1.36719,-5.46875 10.52735,-49.6289 l 9.16015,-44.16016 h 25.83985 q -18.59375,89.55078 -21.32813,99.66797 -15.17578,49.76562 -60.42969,49.76562 z"
         id="path5395" />
      <path
         d="m 776.48651,200.15533 q 17.22656,-10.2539 48.94531,-10.2539 l -3.00781,22.83203 -10.80078,1.36719 q -35.41016,4.10156 -48.26172,48.67187 l -16.81641,77.38281 h -25.70312 l -0.54688,-0.27343 30.89844,-150.25391 h 26.52344 z"
         id="path5397" />
      <path
         d="m 902.40448,190.99518 q 37.1875,0 48.39844,26.93359 3.41797,11.34766 3.41797,21.46485 0,22.69531 -11.34766,53.86718 -6.01563,14.90235 -18.18359,27.89063 -12.98829,12.85156 -34.86329,17.5 -8.33984,1.5039 -21.46484,1.5039 -13.125,0 -29.53125,-8.20312 -20.23437,-12.85156 -20.23437,-35.82031 0,-28.02735 22.28515,-44.16016 13.26172,-8.75 37.73438,-8.75 h 49.21875 v -4.51172 q 0,-10.39062 -8.20313,-19.27734 -7.92969,-6.15235 -20.09765,-6.15235 -23.37891,1.50391 -24.33594,14.35547 l -25.29297,-0.13672 q 1.36719,-11.34765 6.5625,-17.5 17.5,-19.0039 45.9375,-19.0039 z M 844.43573,291.7569 q -0.82031,13.80859 13.67187,22.55859 9.98047,3.82813 17.08985,3.82813 37.73437,0 49.76562,-53.04688 h -47.71484 q -17.77344,0 -23.51563,5.60547 -8.33984,7.10937 -9.29687,21.05469 z"
         id="path5399" />
      <path
         d="m 1001.6623,264.68658 q -6.83595,36.91407 10.5273,47.57813 7.1094,4.51172 17.7735,4.51172 38.0078,0 50.8593,-50.03906 1.7774,-7.79297 2.5977,-13.125 2.0508,-30.07813 -11.8945,-38.00782 -7.1094,-4.51172 -17.7735,-4.51172 -38.0078,0 -52.0898,53.59375 z m 2.0508,-56.73828 q 20.5078,-19.6875 53.0468,-19.6875 35.5469,0 47.3047,23.51563 5.1953,10.9375 5.1953,27.89062 0,9.57032 -3.1445,27.07032 -3.6914,16.54296 -8.3398,27.89062 -21.6016,44.98047 -70.8203,44.98047 -25.4297,0 -38.69145,-12.03125 -5.60546,25.42969 -12.71484,57.83203 H 949.02557 L 973.63495,269.8819 q 11.48437,-47.03125 30.07815,-61.9336 z"
         id="path5401" />
      <path
         d="m 1152.3264,264.68658 q -6.836,36.91407 10.5273,47.57813 7.1094,4.51172 17.7734,4.51172 38.0078,0 50.8594,-50.03906 1.7774,-7.79297 2.5977,-13.125 2.0507,-30.07813 -11.8946,-38.00782 -7.1093,-4.51172 -17.7734,-4.51172 -38.0078,0 -52.0898,53.59375 z m 2.0507,-56.73828 q 20.5078,-19.6875 53.0469,-19.6875 35.5469,0 47.3047,23.51563 5.1953,10.9375 5.1953,27.89062 0,9.57032 -3.1445,27.07032 -3.6914,16.54296 -8.3399,27.89062 -21.6015,44.98047 -70.8203,44.98047 -25.4297,0 -38.6914,-12.03125 -5.6055,25.42969 -12.7148,57.83203 h -26.5235 L 1124.299,269.8819 q 11.4844,-47.03125 30.0781,-61.9336 z"
         id="path5403" />
      <path
         d="m 1346.1935,190.99518 q 35.1368,0 46.8946,23.3789 4.9218,11.75782 4.9218,25.83985 0,14.08203 -6.1523,37.1875 h -99.9414 q -1.0938,0 -1.0938,14.6289 0,14.62891 11.3477,21.73829 7.6563,4.375 17.0898,4.375 13.2618,0 22.1485,-8.20313 1.0937,-1.77734 1.7773,-6.15234 l 26.3867,0.27343 q -1.914,11.21094 -6.4257,16.81641 -6.6993,7.38281 -14.6289,11.62109 -15.4493,7.65625 -36.0938,7.65625 -24.1992,0 -37.7344,-15.85937 -9.707,-13.26172 -9.707,-37.46094 0.6836,-21.875 11.7578,-50.72265 20.6445,-45.11719 69.4531,-45.11719 z m -50.8593,64.25781 1.6406,0.27344 h 74.1016 q 0.8203,-4.51172 1.5039,-12.03125 0,-20.23438 -14.3555,-27.34375 -6.2891,-2.8711 -15.3125,-2.8711 -31.7188,0 -47.5781,41.97266 z"
         id="path5405" />
      <path
         d="m 1457.756,200.15533 q 17.2266,-10.2539 48.9454,-10.2539 l -3.0079,22.83203 -10.8007,1.36719 q -35.4102,4.10156 -48.2618,48.67187 l -16.8164,77.38281 h -25.7031 l -0.5469,-0.27343 30.8985,-150.25391 h 26.5234 z"
         id="path5407" />
      <path
         d="m 1632.8928,299.54987 q -5.8789,41.69921 -68.7696,41.69921 -39.6484,0 -51.4062,-23.51562 -5.1953,-10.9375 -5.3321,-25.56641 h 25.0196 q -1.0938,13.8086 12.8515,21.73828 7.1094,4.51172 17.7735,4.51172 35.8203,1.36719 40.332,-13.67187 l 1.5039,-8.06641 q 3.9649,-18.59375 -35,-18.59375 -38.8281,0 -47.168,-20.50781 -8.3398,-20.64453 4.1016,-44.16016 12.4414,-23.51562 63.0274,-23.51562 35.5468,0 47.3046,23.51562 5.0586,10.9375 5.0586,27.61719 h -25.2929 q -1.3672,-17.08984 -12.3047,-23.78906 -9.8438,-5.87891 -27.3438,-4.51172 -26.3867,0 -31.8554,18.32031 l -0.4102,7.51953 q -4.9219,19.14063 44.4336,19.14063 49.3555,0 43.4766,41.83594 z"
         id="path5409" />
      <path
         d="m 1705.6271,200.15533 q 17.2266,-10.2539 40.7422,-10.2539 35.5469,0 47.3047,23.51562 5.0586,11.07422 5.0586,27.89063 0,16.8164 -9.5703,57.55859 l -9.707,41.28906 h -24.6094 q -0.6836,0 6.8359,-35 7.6563,-35 9.9805,-49.90234 3.418,-30.07812 -10.5274,-38.00781 -7.1093,-4.51172 -17.7734,-4.51172 -38.0078,0 -50.8594,50.03906 l -16.8164,77.38281 h -25.7031 l -0.5469,-0.27343 41.6992,-195.78125 h 26.5235 z"
         id="path5411" />
      <path
         d="m 1824.9826,234.8819 q 21.6016,-44.98047 70.8203,-44.98047 35.5469,0 47.3047,23.51562 5.0586,11.07422 5.0586,27.89063 0,9.57031 -3.1445,26.93359 -2.1875,12.98828 -8.2032,28.02735 -21.6015,44.98046 -70.8203,44.98046 -35.5468,0 -47.3047,-23.51562 -5.1953,-10.9375 -5.1953,-27.89063 0,-9.57031 3.1446,-27.07031 3.6914,-16.54297 8.3398,-27.89062 z m 96.1133,29.9414 q 6.8359,-36.91406 -10.5274,-47.57812 -7.1093,-4.51172 -17.7734,-4.51172 -38.0078,0 -50.8594,50.03906 -1.7773,7.79297 -2.5976,13.125 -2.0508,30.07813 11.8945,38.00781 7.1094,4.51172 17.7734,4.51172 38.0079,0 52.0899,-53.59375 z"
         id="path5413" />
      <path
         d="m 1994.7873,264.68658 q -6.8359,36.91407 10.5273,47.57813 7.1094,4.51172 17.7735,4.51172 38.0078,0 50.8593,-50.03906 1.7774,-7.79297 2.5977,-13.125 2.0508,-30.07813 -11.8945,-38.00782 -7.1094,-4.51172 -17.7735,-4.51172 -38.0078,0 -52.0898,53.59375 z m 2.0508,-56.73828 q 20.5078,-19.6875 53.0468,-19.6875 35.5469,0 47.3047,23.51563 5.1953,10.9375 5.1953,27.89062 0,9.57032 -3.1445,27.07032 -3.6914,16.54296 -8.3398,27.89062 -21.6016,44.98047 -70.8203,44.98047 -25.4297,0 -38.6914,-12.03125 -5.6055,25.42969 -12.7149,57.83203 h -26.5234 l 24.6093,-115.52734 q 11.4844,-47.03125 30.0782,-61.9336 z"
         id="path5415" />
      <path
         d="m 2128.9084,306.93268 q 6.9726,0 11.8945,4.92187 4.9219,4.92188 4.9219,11.89453 0,6.97266 -4.9219,11.89454 -4.9219,4.92187 -11.8945,4.92187 -6.9727,0 -11.8945,-4.92187 -4.9219,-4.92188 -4.9219,-11.89454 0,-6.97265 4.9219,-11.89453 4.9218,-4.92187 11.8945,-4.92187 z"
         id="path5417" />
      <path
         d="m 2268.2248,264.8233 q 6.8359,-36.91406 -10.5274,-47.57812 -7.1093,-4.51172 -17.7734,-4.51172 -38.0078,0 -50.8594,50.03906 -1.7773,7.79297 -2.5976,13.125 -2.0508,30.07813 11.8945,38.00781 7.1094,4.51172 17.7734,4.51172 38.0079,0 52.0899,-53.59375 z m -23.1055,70.54688 q -14.2187,5.8789 -31.9922,5.8789 -35.5468,0 -47.3047,-23.51562 -5.1953,-10.9375 -5.1953,-27.89063 0,-9.57031 3.1446,-27.07031 3.6914,-16.54297 8.3398,-27.89062 21.6016,-44.98047 70.8203,-44.98047 35.5469,0 47.3047,23.51562 5.0586,11.07422 5.0586,27.89063 0,9.57031 -3.1445,26.93359 -2.1875,12.98828 -12.0313,42.38281 -9.707,29.25782 -14.3554,40.60547 -21.6016,44.98047 -70.8204,44.98047 -35.5468,0 -47.3046,-23.51562 -5.0586,-10.9375 -5.0586,-27.61719 h 25.2929 q 1.3672,17.08984 12.3047,23.78906 7.1094,4.51172 17.7735,4.51172 33.0859,0 47.1679,-38.00781 z"
         id="path5419" />
      <path
         d="m 2386.3498,190.99518 q 37.1875,0 48.3984,26.93359 3.418,11.34766 3.418,21.46485 0,22.69531 -11.3477,53.86718 -6.0156,14.90235 -18.1836,27.89063 -12.9882,12.85156 -34.8632,17.5 -8.3399,1.5039 -21.4649,1.5039 -13.125,0 -29.5312,-8.20312 -20.2344,-12.85156 -20.2344,-35.82031 0,-28.02735 22.2852,-44.16016 13.2617,-8.75 37.7343,-8.75 h 49.2188 v -4.51172 q 0,-10.39062 -8.2031,-19.27734 -7.9297,-6.15235 -20.0977,-6.15235 -23.3789,1.50391 -24.3359,14.35547 l -25.293,-0.13672 q 1.3672,-11.34765 6.5625,-17.5 17.5,-19.0039 45.9375,-19.0039 z M 2328.381,291.7569 q -0.8203,13.80859 13.6719,22.55859 9.9805,3.82813 17.0899,3.82813 37.7343,0 49.7656,-53.04688 h -47.7149 q -17.7734,0 -23.5156,5.60547 -8.3398,7.10937 -9.2969,21.05469 z"
         id="path5421" />
    </g>
  </g>
</svg>
